<?xml version="1.0" encoding="iso-8859-1"?>
<!-- Generator: Adobe Illustrator 19.0.0, SVG Export Plug-In . SVG Version: 6.00 Build 0)  -->
<svg xmlns="http://www.w3.org/2000/svg" xmlns:xlink="http://www.w3.org/1999/xlink" version="1.1" id="Capa_1" x="0px" y="0px" viewBox="0 0 496.257 496.257" style="enable-background:new 0 0 496.257 496.257;" xml:space="preserve" width="512px" height="512px">
<g>
	<g>
		<path d="M468.737,241.313c17.447-14.339,27.547-35.745,27.52-58.328c-0.061-34.063-22.812-63.912-55.64-73    c-4.596-19.322-16.844-35.948-33.936-46.064c-19.277-11.394-42.668-13.478-63.656-5.672    c-20.783,7.554-36.823,24.412-43.336,45.544c-5.221-0.716-10.482-1.093-15.752-1.128    c-61.816,0.081-113.489,47.041-119.464,108.568c-61.562-24.544-131.364,5.464-155.909,67.026    c-24.544,61.562,5.464,131.364,67.026,155.909c8.788,3.504,17.959,5.956,27.323,7.305c5.64,0.79,11.329,1.188,17.024,1.192h252    c16.136,0.054,32.123-3.086,47.04-9.24c63.321-25.911,93.647-98.248,67.736-161.568    C482.216,260.867,476.162,250.58,468.737,241.313z M348.361,73.329c16.511-6.196,34.937-4.599,50.136,4.344    c14.651,8.658,24.688,23.389,27.384,40.192c0.529,3.306,3.06,5.933,6.344,6.584c32.301,6.401,53.298,37.775,46.897,70.076    c-2.733,13.794-10.254,26.178-21.233,34.964c-15.715-15.264-35.208-26.071-56.48-31.312c-9.026-44.266-42.29-79.632-85.92-91.352    C320.837,91.275,332.915,78.969,348.361,73.329z M477.922,339.676c-7.052,35.578-31.483,65.245-65.049,78.989    c-12.984,5.341-26.897,8.06-40.936,8h-252c-4.949-0.004-9.891-0.352-14.792-1.04c-56.849-8.203-96.284-60.938-88.081-117.787    s60.938-96.284,117.787-88.081c11.653,1.681,22.935,5.329,33.367,10.788c3.911,2.055,8.748,0.549,10.802-3.362    c0.602-1.147,0.917-2.422,0.917-3.718v-0.8c0.022-57.438,46.603-103.982,104.04-103.96c51.008,0.02,94.474,37.03,102.624,87.384    c0.528,3.304,3.055,5.93,6.336,6.584C451.476,224.276,489.525,281.137,477.922,339.676z" fill="#FFFFFF"/>
	</g>
</g>
<g>
</g>
<g>
</g>
<g>
</g>
<g>
</g>
<g>
</g>
<g>
</g>
<g>
</g>
<g>
</g>
<g>
</g>
<g>
</g>
<g>
</g>
<g>
</g>
<g>
</g>
<g>
</g>
<g>
</g>
</svg>
