<?xml version="1.0" encoding="iso-8859-1"?>
<!-- Generator: Adobe Illustrator 19.0.0, SVG Export Plug-In . SVG Version: 6.00 Build 0)  -->
<svg xmlns="http://www.w3.org/2000/svg" xmlns:xlink="http://www.w3.org/1999/xlink" version="1.1" id="Capa_1" x="0px" y="0px" viewBox="0 0 495.891 495.891" style="enable-background:new 0 0 495.891 495.891;" xml:space="preserve" width="512px" height="512px">
<g>
	<g>
		<g>
			<path d="M253.761,2.387c-3.224-3.182-8.408-3.182-11.632,0c-7.6,8.032-186.184,197.896-186.184,301.504     c0.123,105.987,86.013,191.877,192,192c105.987-0.123,191.877-86.013,192-192C439.945,200.283,261.361,10.419,253.761,2.387z      M247.945,479.891c-97.202,0-176-78.798-176-176c0-87.28,144.912-250.272,176-284.224c31.088,33.952,176,196.912,176,284.224     C423.945,401.093,345.147,479.891,247.945,479.891z" fill="#FFFFFF"/>
			<path d="M247.945,447.891c-79.491-0.093-143.907-64.509-144-144c0-4.418-3.582-8-8-8s-8,3.582-8,8     c0.101,88.323,71.677,159.899,160,160c4.418,0,8-3.582,8-8S252.364,447.891,247.945,447.891z" fill="#FFFFFF"/>
		</g>
	</g>
</g>
<g>
</g>
<g>
</g>
<g>
</g>
<g>
</g>
<g>
</g>
<g>
</g>
<g>
</g>
<g>
</g>
<g>
</g>
<g>
</g>
<g>
</g>
<g>
</g>
<g>
</g>
<g>
</g>
<g>
</g>
</svg>
