<?xml version="1.0" encoding="iso-8859-1"?>
<!-- Generator: Adobe Illustrator 19.0.0, SVG Export Plug-In . SVG Version: 6.00 Build 0)  -->
<svg xmlns="http://www.w3.org/2000/svg" xmlns:xlink="http://www.w3.org/1999/xlink" version="1.1" id="Capa_1" x="0px" y="0px" viewBox="0 0 495.973 495.973" style="enable-background:new 0 0 495.973 495.973;" xml:space="preserve" width="512px" height="512px">
<g>
	<g>
		<g>
			<path d="M486.651,206.799c-15.057-36.688-46.746-63.966-85.266-73.396h0.032c-13.634-64.857-77.264-106.38-142.12-92.746     c-51.317,10.788-89.686,53.648-94.752,105.842c-61.546-24.584-131.368,5.38-155.952,66.926     c-24.584,61.546,5.38,131.368,66.926,155.952c8.819,3.523,18.026,5.986,27.426,7.339c5.632,0.788,11.313,1.187,17,1.192h252     c16.136,0.053,32.123-3.087,47.04-9.24C482.369,342.654,512.664,270.183,486.651,206.799z M477.922,274.934     c-7.057,35.57-31.484,65.229-65.041,78.973c-12.984,5.341-26.896,8.06-40.936,8h-252c-4.949-0.005-9.891-0.352-14.792-1.04     c-56.847-8.215-96.272-60.957-88.057-117.805s60.958-96.272,117.805-88.057c11.637,1.682,22.905,5.325,33.324,10.774     c2.55,1.186,5.536,0.946,7.864-0.632c2.417-1.615,3.864-4.333,3.856-7.24c0.022-57.438,46.603-103.982,104.04-103.96     c51.008,0.02,94.474,37.03,102.624,87.384c0.532,3.303,3.062,5.926,6.344,6.576C451.494,159.521,489.536,216.393,477.922,274.934     z" fill="#FFFFFF"/>
			<path d="M167.945,393.907h-16c-4.418,0-8,3.582-8,8s3.582,8,8,8h16c4.418,0,8-3.582,8-8S172.363,393.907,167.945,393.907z" fill="#FFFFFF"/>
			<path d="M255.945,393.907h-16c-4.418,0-8,3.582-8,8s3.582,8,8,8h16c4.418,0,8-3.582,8-8S260.363,393.907,255.945,393.907z" fill="#FFFFFF"/>
			<path d="M343.945,393.907h-16c-4.418,0-8,3.582-8,8s3.582,8,8,8h16c4.418,0,8-3.582,8-8S348.363,393.907,343.945,393.907z" fill="#FFFFFF"/>
			<path d="M207.945,417.907h-16c-4.418,0-8,3.582-8,8s3.582,8,8,8h16c4.418,0,8-3.582,8-8S212.363,417.907,207.945,417.907z" fill="#FFFFFF"/>
			<path d="M303.945,417.907h-16c-4.418,0-8,3.582-8,8s3.582,8,8,8h16c4.418,0,8-3.582,8-8S308.363,417.907,303.945,417.907z" fill="#FFFFFF"/>
			<path d="M255.945,441.907h-16c-4.418,0-8,3.582-8,8s3.582,8,8,8h16c4.418,0,8-3.582,8-8S260.363,441.907,255.945,441.907z" fill="#FFFFFF"/>
		</g>
	</g>
</g>
<g>
</g>
<g>
</g>
<g>
</g>
<g>
</g>
<g>
</g>
<g>
</g>
<g>
</g>
<g>
</g>
<g>
</g>
<g>
</g>
<g>
</g>
<g>
</g>
<g>
</g>
<g>
</g>
<g>
</g>
</svg>
