<?xml version="1.0" encoding="iso-8859-1"?>
<!-- Generator: Adobe Illustrator 19.0.0, SVG Export Plug-In . SVG Version: 6.00 Build 0)  -->
<svg xmlns="http://www.w3.org/2000/svg" xmlns:xlink="http://www.w3.org/1999/xlink" version="1.1" id="Capa_1" x="0px" y="0px" viewBox="0 0 496.045 496.045" style="enable-background:new 0 0 496.045 496.045;" xml:space="preserve" width="512px" height="512px">
<g>
	<g>
		<g>
			<path d="M486.723,300.915c-15.057-36.688-46.746-63.966-85.266-73.396h0.032c-13.419-64.566-76.474-106.166-141.112-93.096     c-27.106-55.601-94.153-78.7-149.753-51.594c-55.601,27.106-78.7,94.153-51.594,149.753c2.085,4.277,4.44,8.416,7.052,12.393     c-59.148,29.709-83.014,101.742-53.305,160.89c17.188,34.221,49.695,58.167,87.473,64.438c1.577,1.098,3.447,1.697,5.368,1.72     h266.4c16.136,0.054,32.123-3.086,47.04-9.24C482.441,436.769,512.736,364.299,486.723,300.915z M64.018,184.022     c0.046-53.019,43.063-95.963,96.083-95.917c35.368,0.03,67.855,19.505,84.549,50.685c-44.258,15.422-75.521,55.156-80.096,101.8     c-26.657-10.7-56.283-11.401-83.416-1.976C69.962,222.606,63.985,203.546,64.018,184.022z M478.003,369.033     c-7.052,35.578-31.483,65.245-65.049,78.989c-12.984,5.341-26.897,8.06-40.936,8h-252c-4.919-0.005-9.832-0.35-14.704-1.032     h-0.088c-56.849-8.203-96.284-60.938-88.081-117.787s60.938-96.284,117.787-88.081c11.653,1.681,22.935,5.329,33.367,10.788     c3.911,2.055,8.748,0.549,10.802-3.362c0.604-1.149,0.918-2.428,0.917-3.726v-0.8c0.022-57.438,46.603-103.982,104.04-103.96     c51.008,0.02,94.474,37.03,102.624,87.384c0.528,3.304,3.055,5.93,6.336,6.584C451.556,253.633,489.605,310.494,478.003,369.033z     " fill="#FFFFFF"/>
			<path d="M160.018,64.022c4.418,0,8-3.582,8-8v-24c0-4.418-3.582-8-8-8s-8,3.582-8,8v24     C152.018,60.441,155.599,64.022,160.018,64.022z" fill="#FFFFFF"/>
			<path d="M8.018,192.022h24c4.418,0,8-3.582,8-8s-3.582-8-8-8h-24c-4.418,0-8,3.582-8,8S3.599,192.022,8.018,192.022z" fill="#FFFFFF"/>
			<path d="M63.85,99.174c3.126,3.126,8.194,3.126,11.32,0c3.126-3.126,3.126-8.194,0-11.32L58.194,70.886     c-3.178-3.069-8.243-2.981-11.312,0.197c-2.994,3.1-2.994,8.015,0,11.115L63.85,99.174z" fill="#FFFFFF"/>
			<path d="M250.522,101.518L250.522,101.518c2.124,0.002,4.162-0.842,5.664-2.344l16.968-16.976     c3.07-3.178,2.982-8.242-0.196-11.312c-3.1-2.995-8.016-2.995-11.116,0l-16.976,16.968c-3.128,3.12-3.135,8.186-0.014,11.314     C246.354,100.674,248.394,101.52,250.522,101.518z" fill="#FFFFFF"/>
		</g>
	</g>
</g>
<g>
</g>
<g>
</g>
<g>
</g>
<g>
</g>
<g>
</g>
<g>
</g>
<g>
</g>
<g>
</g>
<g>
</g>
<g>
</g>
<g>
</g>
<g>
</g>
<g>
</g>
<g>
</g>
<g>
</g>
</svg>
