<?xml version="1.0" encoding="iso-8859-1"?>
<!-- Generator: Adobe Illustrator 19.0.0, SVG Export Plug-In . SVG Version: 6.00 Build 0)  -->
<svg xmlns="http://www.w3.org/2000/svg" xmlns:xlink="http://www.w3.org/1999/xlink" version="1.1" id="Capa_1" x="0px" y="0px" viewBox="0 0 496.055 496.055" style="enable-background:new 0 0 496.055 496.055;" xml:space="preserve" width="512px" height="512px">
<g>
	<g>
		<path d="M486.733,276.919c-15.057-36.688-46.746-63.966-85.266-73.396h0.032c-13.419-64.566-76.474-106.166-141.112-93.096    c-18.821-38.233-57.746-62.435-100.36-62.4c-1.12,0-2.328,0-3.432,0.112h-0.128c-0.548,0.103-1.084,0.261-1.6,0.472    c-0.5,0.117-0.988,0.283-1.456,0.496h-0.128c-0.31,0.242-0.599,0.51-0.864,0.8c-0.501,0.345-0.96,0.748-1.368,1.2    c-0.296,0.43-0.548,0.888-0.752,1.368c-0.261,0.423-0.481,0.87-0.656,1.336c-0.142,0.611-0.211,1.237-0.208,1.864    c-0.064,0.365-0.104,0.734-0.12,1.104v0.12c0.101,0.548,0.256,1.084,0.464,1.6c0.119,0.496,0.282,0.981,0.488,1.448    c0,0.048,0,0.096,0.048,0.136c19.815,34.476,7.93,78.487-26.546,98.302c-19.588,11.258-43.326,12.669-64.11,3.81    c-0.168-0.072-0.344-0.048-0.512-0.104c-0.361-0.106-0.73-0.184-1.104-0.232c-0.62-0.154-1.257-0.235-1.896-0.24    c-0.12,0-0.232-0.048-0.36-0.04c-0.36,0.075-0.713,0.179-1.056,0.312c-2.123,0.38-3.954,1.713-4.968,3.616    c-0.226,0.276-0.429,0.571-0.608,0.88c-0.056,0.12,0,0.248-0.08,0.368c-0.166,0.52-0.276,1.057-0.328,1.6    c-0.108,0.526-0.165,1.062-0.168,1.6c0,0.128-0.056,0.24-0.048,0.376c1.649,18.08,7.691,35.483,17.6,50.696    C6.947,250.744-16.941,322.812,12.776,381.996c17.628,35.108,51.335,59.355,90.227,64.903c5.642,0.768,11.33,1.145,17.024,1.128    h252c16.136,0.053,32.123-3.087,47.04-9.24C482.451,412.774,512.746,340.303,486.733,276.919z M173.239,118.32    c4.602-17.792,3.495-36.58-3.164-53.708c31.661,3.286,59.618,22.095,74.592,50.184c-44.264,15.416-75.531,55.152-80.104,101.8    c-14.169-5.649-29.282-8.556-44.536-8.568c-13.245,0.022-26.393,2.253-38.904,6.6c-6.995-10.085-11.985-21.422-14.696-33.392    C113.296,193.357,161.117,165.188,173.239,118.32z M478.013,345.042c-7.054,35.577-31.485,65.242-65.051,78.985    c-12.984,5.341-26.897,8.06-40.936,8h-252c-4.949-0.004-9.891-0.352-14.792-1.04C48.386,422.784,8.951,370.049,17.154,313.2    c8.203-56.849,60.938-96.284,117.787-88.081c11.653,1.681,22.935,5.329,33.367,10.788c3.911,2.055,8.748,0.549,10.802-3.362    c0.602-1.147,0.917-2.422,0.917-3.718v-0.8c0.022-57.438,46.603-103.982,104.04-103.96c51.008,0.02,94.474,37.03,102.624,87.384    c0.529,3.306,3.06,5.933,6.344,6.584C451.573,229.641,489.619,286.504,478.013,345.042z" fill="#FFFFFF"/>
	</g>
</g>
<g>
</g>
<g>
</g>
<g>
</g>
<g>
</g>
<g>
</g>
<g>
</g>
<g>
</g>
<g>
</g>
<g>
</g>
<g>
</g>
<g>
</g>
<g>
</g>
<g>
</g>
<g>
</g>
<g>
</g>
</svg>
