<?xml version="1.0" encoding="iso-8859-1"?>
<!-- Generator: Adobe Illustrator 19.0.0, SVG Export Plug-In . SVG Version: 6.00 Build 0)  -->
<svg xmlns="http://www.w3.org/2000/svg" xmlns:xlink="http://www.w3.org/1999/xlink" version="1.1" id="Capa_1" x="0px" y="0px" viewBox="0 0 495.973 495.973" style="enable-background:new 0 0 495.973 495.973;" xml:space="preserve" width="512px" height="512px">
<g>
	<g>
		<g>
			<path d="M486.651,202.75c-15.057-36.688-46.746-63.966-85.266-73.396h0.032c-13.634-64.857-77.264-106.38-142.12-92.746     c-51.317,10.788-89.686,53.648-94.752,105.842c-61.546-24.584-131.368,5.38-155.952,66.926s5.38,131.368,66.926,155.952     c8.819,3.523,18.026,5.986,27.426,7.339c5.632,0.788,11.313,1.187,17,1.192h252c16.136,0.054,32.123-3.086,47.04-9.24     C482.369,338.605,512.664,266.134,486.651,202.75z M477.946,270.85c-7.049,35.589-31.488,65.265-65.065,79.008     c-12.984,5.341-26.896,8.06-40.936,8h-252c-4.949-0.005-9.891-0.352-14.792-1.04c-56.847-8.215-96.272-60.957-88.057-117.805     s60.958-96.272,117.805-88.057c11.637,1.682,22.905,5.325,33.324,10.774c2.55,1.17,5.526,0.931,7.856-0.632     c2.424-1.61,3.876-4.33,3.864-7.24c0.022-57.438,46.603-103.982,104.04-103.96c51.008,0.02,94.474,37.03,102.624,87.384     c0.531,3.301,3.057,5.923,6.336,6.576C451.485,155.453,489.541,212.31,477.946,270.85z" fill="#FFFFFF"/>
			<path d="M234.289,392.202l-32,32c-3.178,3.069-3.266,8.134-0.196,11.312c3.069,3.178,8.134,3.266,11.312,0.196     c0.067-0.064,0.132-0.13,0.196-0.196l32-32c3.07-3.178,2.982-8.242-0.196-11.312     C242.304,389.207,237.389,389.207,234.289,392.202z" fill="#FFFFFF"/>
			<path d="M186.289,440.202l-8,8c-3.178,3.069-3.266,8.134-0.196,11.312c3.069,3.178,8.134,3.266,11.312,0.196     c0.067-0.064,0.132-0.13,0.196-0.196l8-8c3.07-3.178,2.982-8.242-0.196-11.312C194.304,437.207,189.389,437.207,186.289,440.202z     " fill="#FFFFFF"/>
			<path d="M154.289,392.202l-32,32c-3.178,3.069-3.266,8.134-0.196,11.312c3.069,3.178,8.134,3.266,11.312,0.196     c0.067-0.064,0.132-0.13,0.196-0.196l32-32c3.07-3.178,2.982-8.242-0.196-11.312     C162.304,389.207,157.389,389.207,154.289,392.202z" fill="#FFFFFF"/>
			<path d="M106.289,440.202l-8,8c-3.178,3.07-3.266,8.134-0.196,11.312c3.07,3.178,8.134,3.266,11.312,0.196     c0.067-0.064,0.132-0.13,0.196-0.196l8-8c3.07-3.178,2.982-8.242-0.196-11.312C114.304,437.207,109.389,437.207,106.289,440.202z     " fill="#FFFFFF"/>
			<path d="M314.289,392.202l-32,32c-3.178,3.07-3.266,8.134-0.196,11.312c3.07,3.178,8.134,3.266,11.312,0.196     c0.066-0.064,0.132-0.13,0.196-0.196l32-32c3.07-3.178,2.982-8.242-0.196-11.312     C322.305,389.207,317.389,389.207,314.289,392.202z" fill="#FFFFFF"/>
			<path d="M266.289,440.202l-8,8c-3.178,3.07-3.266,8.134-0.196,11.312c3.07,3.178,8.134,3.266,11.312,0.196     c0.066-0.064,0.132-0.13,0.196-0.196l8-8c3.07-3.178,2.982-8.242-0.196-11.312C274.305,437.207,269.389,437.207,266.289,440.202z     " fill="#FFFFFF"/>
			<path d="M394.289,392.202l-32,32c-3.178,3.07-3.266,8.134-0.196,11.312c3.07,3.178,8.134,3.266,11.312,0.196     c0.066-0.064,0.132-0.13,0.196-0.196l32-32c3.07-3.178,2.982-8.242-0.196-11.312     C402.305,389.207,397.389,389.207,394.289,392.202z" fill="#FFFFFF"/>
			<path d="M346.289,440.202l-8,8c-3.178,3.07-3.266,8.134-0.196,11.312c3.07,3.178,8.134,3.266,11.312,0.196     c0.066-0.064,0.132-0.13,0.196-0.196l8-8c3.07-3.178,2.982-8.242-0.196-11.312C354.305,437.207,349.389,437.207,346.289,440.202z     " fill="#FFFFFF"/>
		</g>
	</g>
</g>
<g>
</g>
<g>
</g>
<g>
</g>
<g>
</g>
<g>
</g>
<g>
</g>
<g>
</g>
<g>
</g>
<g>
</g>
<g>
</g>
<g>
</g>
<g>
</g>
<g>
</g>
<g>
</g>
<g>
</g>
</svg>
