<?xml version="1.0" encoding="iso-8859-1"?>
<!-- Generator: Adobe Illustrator 19.0.0, SVG Export Plug-In . SVG Version: 6.00 Build 0)  -->
<svg xmlns="http://www.w3.org/2000/svg" xmlns:xlink="http://www.w3.org/1999/xlink" version="1.1" id="Layer_1" x="0px" y="0px" viewBox="0 0 406.9 406.9" style="enable-background:new 0 0 406.9 406.9;" xml:space="preserve" width="512px" height="512px">
<g>
	<g>
		<path d="M399.4,195.95h-55.923l31.582-54.697c2.071-3.587,0.842-8.174-2.745-10.245c-3.587-2.071-8.174-0.842-10.245,2.745    l-35.912,62.197h-86.755c-1.614-7.839-5.706-14.784-11.418-19.977l43.318-75.034h71.815c4.142,0,7.5-3.358,7.5-7.5    c0-4.142-3.358-7.5-7.5-7.5h-63.156L307.926,37.5c2.071-3.587,0.842-8.174-2.745-10.245c-3.589-2.071-8.175-0.842-10.245,2.746    L266.971,78.44L235.39,23.735c-2.071-3.587-6.658-4.816-10.245-2.746c-3.587,2.071-4.816,6.658-2.745,10.245l35.911,62.205    l-43.236,74.892c-3.781-1.301-7.831-2.017-12.048-2.017c-3.95,0-7.755,0.626-11.329,1.773l-43.1-74.653l35.907-62.194    c2.071-3.587,0.842-8.174-2.745-10.245c-3.588-2.072-8.174-0.842-10.245,2.745l-31.577,54.693l-27.963-48.434    c-2.071-3.588-6.658-4.816-10.245-2.745s-4.816,6.658-2.745,10.245l27.963,48.435l-63.167-0.002c-4.142,0-7.5,3.358-7.5,7.5    c0,4.142,3.357,7.5,7.5,7.5l71.828,0.003l43.035,74.541c-6.008,5.243-10.325,12.378-11.992,20.474H80.749L44.84,133.753    c-2.071-3.587-6.658-4.816-10.245-2.745c-3.587,2.071-4.816,6.658-2.745,10.245l31.58,54.697H7.5c-4.142,0-7.5,3.358-7.5,7.5    c0,4.142,3.358,7.5,7.5,7.5h55.925l-31.583,54.699c-2.071,3.587-0.842,8.174,2.745,10.245c1.181,0.682,2.471,1.006,3.743,1.006    c2.592,0,5.113-1.345,6.502-3.751l35.913-62.199h85.906c1.667,8.096,5.983,15.231,11.991,20.475l-43.034,74.538H63.785    c-4.142,0-7.5,3.358-7.5,7.5c0,4.142,3.358,7.5,7.5,7.5h63.165L98.986,369.4c-2.071,3.587-0.842,8.174,2.745,10.245    c1.181,0.682,2.471,1.006,3.743,1.006c2.592,0,5.113-1.345,6.502-3.751l27.96-48.43l31.577,54.696    c1.389,2.406,3.91,3.751,6.502,3.751c1.272,0,2.562-0.324,3.743-1.006c3.587-2.071,4.816-6.658,2.745-10.245l-35.907-62.197    l43.102-74.657c3.574,1.148,7.379,1.774,11.33,1.774c4.217,0,8.268-0.716,12.049-2.017l43.233,74.887l-35.913,62.204    c-2.071,3.587-0.842,8.174,2.745,10.245c1.181,0.682,2.471,1.006,3.743,1.006c2.592,0,5.113-1.345,6.502-3.751l31.583-54.703    l27.966,48.442c1.389,2.406,3.91,3.751,6.502,3.751c1.272,0,2.562-0.324,3.743-1.006c3.587-2.071,4.816-6.658,2.745-10.245    l-27.961-48.433l63.155,0.002c4.142,0,7.5-3.358,7.5-7.5c0-4.142-3.357-7.5-7.5-7.5l-71.816-0.003l-43.32-75.038    c5.712-5.193,9.804-12.139,11.418-19.978h86.749l35.911,62.199c1.389,2.406,3.91,3.751,6.502,3.751    c1.272,0,2.562-0.324,3.743-1.006c3.587-2.071,4.816-6.658,2.745-10.245l-31.581-54.699H399.4c4.142,0,7.5-3.358,7.5-7.5    C406.9,199.307,403.542,195.95,399.4,195.95z M225.162,203.489c-0.021,12.189-9.942,22.099-22.135,22.099    c-12.206-0.001-22.137-9.931-22.137-22.137s9.931-22.136,22.137-22.136c12.193,0,22.114,9.909,22.135,22.097    c0,0.013-0.002,0.025-0.002,0.038S225.162,203.476,225.162,203.489z" fill="#FFFFFF"/>
	</g>
</g>
<g>
</g>
<g>
</g>
<g>
</g>
<g>
</g>
<g>
</g>
<g>
</g>
<g>
</g>
<g>
</g>
<g>
</g>
<g>
</g>
<g>
</g>
<g>
</g>
<g>
</g>
<g>
</g>
<g>
</g>
</svg>
