<?xml version="1.0" encoding="iso-8859-1"?>
<!-- Generator: Adobe Illustrator 19.0.0, SVG Export Plug-In . SVG Version: 6.00 Build 0)  -->
<svg xmlns="http://www.w3.org/2000/svg" xmlns:xlink="http://www.w3.org/1999/xlink" version="1.1" id="Capa_1" x="0px" y="0px" viewBox="0 0 495.973 495.973" style="enable-background:new 0 0 495.973 495.973;" xml:space="preserve" width="512px" height="512px">
<g>
	<g>
		<g>
			<path d="M486.651,198.75c-15.057-36.688-46.746-63.966-85.266-73.396h0.032c-13.634-64.857-77.264-106.38-142.12-92.746     c-51.317,10.788-89.686,53.648-94.752,105.842c-61.546-24.584-131.368,5.38-155.952,66.926s5.38,131.368,66.926,155.952     c8.819,3.523,18.026,5.986,27.426,7.339c5.632,0.788,11.313,1.187,17,1.192h252c16.136,0.053,32.123-3.087,47.04-9.24     C482.369,334.605,512.664,262.134,486.651,198.75z M477.922,266.885c-7.057,35.57-31.484,65.229-65.041,78.973     c-12.984,5.341-26.896,8.06-40.936,8h-252c-4.949-0.005-9.891-0.352-14.792-1.04c-56.847-8.215-96.272-60.957-88.057-117.805     s60.958-96.272,117.805-88.057c11.637,1.682,22.905,5.325,33.324,10.774c2.55,1.186,5.536,0.946,7.864-0.632     c2.417-1.615,3.864-4.333,3.856-7.24c0.022-57.438,46.603-103.982,104.04-103.96c51.008,0.02,94.474,37.03,102.624,87.384     c0.532,3.303,3.062,5.926,6.344,6.576C451.494,151.472,489.536,208.344,477.922,266.885z" fill="#FFFFFF"/>
			<path d="M269.601,388.202c-3.124-3.123-8.188-3.123-11.312,0l-32,32c-3.124,3.125-3.123,8.19,0.002,11.314     c1.5,1.499,3.534,2.342,5.654,2.342h12.688l-18.344,18.344c-3.178,3.069-3.266,8.134-0.196,11.312     c3.069,3.178,8.134,3.266,11.312,0.196c0.067-0.064,0.132-0.13,0.196-0.196l32-32c3.124-3.125,3.123-8.19-0.002-11.314     c-1.5-1.499-3.534-2.342-5.654-2.342h-12.688l18.344-18.344C272.724,396.39,272.724,391.326,269.601,388.202z" fill="#FFFFFF"/>
			<path d="M202.289,388.202l-32,32c-3.178,3.069-3.266,8.134-0.196,11.312c3.069,3.178,8.134,3.266,11.312,0.196     c0.067-0.064,0.132-0.13,0.196-0.196l32-32c3.07-3.178,2.982-8.242-0.196-11.312     C210.304,385.207,205.389,385.207,202.289,388.202z" fill="#FFFFFF"/>
			<path d="M330.289,388.202l-32,32c-3.178,3.07-3.266,8.134-0.196,11.312c3.07,3.178,8.134,3.266,11.312,0.196     c0.066-0.064,0.132-0.13,0.196-0.196l32-32c3.07-3.178,2.982-8.242-0.196-11.312     C338.305,385.207,333.389,385.207,330.289,388.202z" fill="#FFFFFF"/>
		</g>
	</g>
</g>
<g>
</g>
<g>
</g>
<g>
</g>
<g>
</g>
<g>
</g>
<g>
</g>
<g>
</g>
<g>
</g>
<g>
</g>
<g>
</g>
<g>
</g>
<g>
</g>
<g>
</g>
<g>
</g>
<g>
</g>
</svg>
