<?xml version="1.0" encoding="iso-8859-1"?>
<!-- Generator: Adobe Illustrator 19.0.0, SVG Export Plug-In . SVG Version: 6.00 Build 0)  -->
<svg xmlns="http://www.w3.org/2000/svg" xmlns:xlink="http://www.w3.org/1999/xlink" version="1.1" id="Capa_1" x="0px" y="0px" viewBox="0 0 498.441 498.441" style="enable-background:new 0 0 498.441 498.441;" xml:space="preserve" width="512px" height="512px">
<g>
	<g>
		<g>
			<path d="M434.864,197.222c-4.418,0.022-7.982,3.622-7.96,8.04s3.622,7.982,8.04,7.96h0.552c1.864-0.001,3.727,0.107,5.578,0.322     c26.332,3.066,45.192,26.898,42.126,53.23c-3.367,24.548-24.488,42.746-49.264,42.448H224c-4.418,0-8,3.582-8,8s3.582,8,8,8     h210.016c35.346,0.234,64.19-28.23,64.424-63.576C498.674,226.299,470.21,197.456,434.864,197.222z" fill="#FFFFFF"/>
			<path d="M411.096,244.558c0.306-2.653,0.446-5.323,0.419-7.994c-0.361-35.344-29.307-63.704-64.651-63.342     c-4.418,0.022-7.982,3.622-7.96,8.04s3.622,7.982,8.04,7.96h0.552c1.864-0.001,3.727,0.107,5.578,0.322     c26.332,3.066,45.192,26.898,42.126,53.23c-3.367,24.548-24.488,42.746-49.264,42.448H136c-4.418,0-8,3.582-8,8s3.582,8,8,8     h210.016C378.9,301.462,406.809,277.162,411.096,244.558z" fill="#FFFFFF"/>
			<path d="M224,269.222c0,4.418,3.582,8,8,8h32c4.418,0,8-3.582,8-8s-3.582-8-8-8h-32C227.582,261.222,224,264.803,224,269.222z" fill="#FFFFFF"/>
			<path d="M216,269.222c0-4.418-3.582-8-8-8H8c-4.418,0-8,3.582-8,8s3.582,8,8,8h200C212.418,277.222,216,273.64,216,269.222z" fill="#FFFFFF"/>
			<path d="M48,253.222h200c4.418,0,8-3.582,8-8s-3.582-8-8-8H48c-4.418,0-8,3.582-8,8S43.582,253.222,48,253.222z" fill="#FFFFFF"/>
		</g>
	</g>
</g>
<g>
</g>
<g>
</g>
<g>
</g>
<g>
</g>
<g>
</g>
<g>
</g>
<g>
</g>
<g>
</g>
<g>
</g>
<g>
</g>
<g>
</g>
<g>
</g>
<g>
</g>
<g>
</g>
<g>
</g>
</svg>
